<svg xmlns="http://www.w3.org/2000/svg" width="2000" height="1435" viewBox="0 0 2000 1435"><rect width="100%" height="100%" fill="#DDDDDD"/><path fill="#999999" d="M464.215 769.505h39.14q4.22 0 6.7 2.38 2.48 2.37 2.48 6.28v15.61h-104.65v-8.65q0-2.64 1.1-5.54 1.11-2.9 3.54-5.22l46.31-46.42q5.8-5.91 10.39-11.29t7.65-10.66q3.06-5.27 4.7-10.7 1.63-5.44 1.63-11.45 0-5.49-1.58-9.65-1.58-4.17-4.48-7.02-2.91-2.85-6.97-4.27-4.06-1.43-9.12-1.43-4.64 0-8.6 1.32t-7.02 3.69q-3.06 2.38-5.17 5.54-2.11 3.17-3.16 6.97-1.79 4.85-4.64 6.43t-8.23.74l-13.72-2.43q1.59-10.97 6.12-19.25 4.54-8.28 11.34-13.82 6.81-5.54 15.62-8.34 8.81-2.79 18.93-2.79 10.55 0 19.31 3.11t14.98 8.81q6.23 5.7 9.71 13.72 3.48 8.01 3.48 17.83 0 8.44-2.48 15.61t-6.65 13.71q-4.16 6.54-9.76 12.66-5.59 6.12-11.71 12.45l-34.39 35.13q4.96-1.47 9.87-2.26 4.9-.8 9.33-.8m175.13-52.01q0 19.94-4.27 34.66t-11.82 24.32q-7.54 9.6-17.83 14.29-10.28 4.7-22.2 4.7-11.93 0-22.11-4.7-10.18-4.69-17.67-14.29t-11.71-24.32-4.22-34.66q0-20.04 4.22-34.71 4.22-14.66 11.71-24.26t17.67-14.3q10.18-4.69 22.11-4.69 11.92 0 22.2 4.69 10.29 4.7 17.83 14.3 7.55 9.6 11.82 24.26 4.27 14.67 4.27 34.71m-26.9 0q0-16.56-2.43-27.43-2.42-10.86-6.49-17.3-4.06-6.43-9.33-9.02-5.28-2.58-10.97-2.58-5.6 0-10.82 2.58-5.22 2.59-9.23 9.02-4.01 6.44-6.38 17.3-2.38 10.87-2.38 27.43 0 16.57 2.38 27.43 2.37 10.87 6.38 17.31 4.01 6.43 9.23 9.02 5.22 2.58 10.82 2.58 5.69 0 10.97-2.58 5.27-2.59 9.33-9.02 4.07-6.44 6.49-17.31 2.43-10.86 2.43-27.43m149.28 0q0 19.94-4.27 34.66t-11.82 24.32q-7.54 9.6-17.83 14.29-10.28 4.7-22.2 4.7-11.93 0-22.11-4.7-10.18-4.69-17.67-14.29t-11.71-24.32-4.22-34.66q0-20.04 4.22-34.71 4.22-14.66 11.71-24.26t17.67-14.3q10.18-4.69 22.11-4.69 11.92 0 22.2 4.69 10.29 4.7 17.83 14.3 7.55 9.6 11.82 24.26 4.27 14.67 4.27 34.71m-26.9 0q0-16.56-2.43-27.43-2.42-10.86-6.49-17.3-4.06-6.43-9.33-9.02-5.28-2.58-10.97-2.58-5.6 0-10.82 2.58-5.22 2.59-9.23 9.02-4.01 6.44-6.38 17.3-2.38 10.87-2.38 27.43 0 16.57 2.38 27.43 2.37 10.87 6.38 17.31 4.01 6.43 9.23 9.02 5.22 2.58 10.82 2.58 5.69 0 10.97-2.58 5.27-2.59 9.33-9.02 4.07-6.44 6.49-17.31 2.43-10.86 2.43-27.43m149.28 0q0 19.94-4.27 34.66t-11.82 24.32q-7.54 9.6-17.83 14.29-10.28 4.7-22.2 4.7-11.93 0-22.11-4.7-10.18-4.69-17.67-14.29t-11.71-24.32-4.22-34.66q0-20.04 4.22-34.71 4.22-14.66 11.71-24.26t17.67-14.3q10.18-4.69 22.11-4.69 11.92 0 22.2 4.69 10.29 4.7 17.83 14.3 7.55 9.6 11.82 24.26 4.27 14.67 4.27 34.71m-26.9 0q0-16.56-2.43-27.43-2.42-10.86-6.49-17.3-4.06-6.43-9.33-9.02-5.28-2.58-10.97-2.58-5.6 0-10.82 2.58-5.22 2.59-9.23 9.02-4.01 6.44-6.38 17.3-2.38 10.87-2.38 27.43 0 16.57 2.38 27.43 2.37 10.87 6.38 17.31 4.01 6.43 9.23 9.02 5.22 2.58 10.82 2.58 5.69 0 10.97-2.58 5.27-2.59 9.33-9.02 4.07-6.44 6.49-17.31 2.43-10.86 2.43-27.43m194.44 41.36-13.82 13.61-35.77-35.77-36.08 35.98-13.82-13.61 36.08-36.19-34.39-34.39 13.71-13.71 34.4 34.39 34.18-34.18 13.92 13.71-34.28 34.29zm144.43 15.4h27.43v19.52h-84.4v-19.52h30.91v-88.93q0-5.28.31-10.87l-21.94 18.36q-1.9 1.47-3.75 1.84-1.84.37-3.48.06-1.63-.32-2.9-1.11-1.26-.79-1.9-1.74l-8.23-11.29 46.53-39.56h21.42zm69.31-37.98h46.42v-49.9q0-7.07.95-15.61zm69.1 0h19.2v15.09q0 2.11-1.37 3.64t-3.9 1.53h-13.93v37.24h-22.68v-37.24h-64.36q-2.63 0-4.64-1.64-2-1.63-2.53-4.06l-2.74-13.19 72.26-96.53h24.69zm49.69-50.11-13.71-2.43q1.58-10.97 6.12-19.25 4.53-8.28 11.34-13.82 6.8-5.54 15.61-8.34 8.81-2.79 18.94-2.79 10.55 0 19.04 3.01 8.49 3 14.51 8.33 6.01 5.33 9.23 12.5 3.22 7.18 3.22 15.51 0 7.28-1.64 12.82-1.63 5.54-4.69 9.65-3.06 4.12-7.6 6.97-4.54 2.84-10.23 4.74 13.71 4.33 20.46 13.19 6.76 8.86 6.76 22.26 0 11.39-4.22 20.15t-11.4 14.72q-7.17 5.96-16.61 9.02-9.45 3.06-20 3.06-11.5 0-20.04-2.64-8.55-2.64-14.88-7.81t-10.76-12.66-7.59-17.3l11.5-4.75q4.53-1.9 8.49-1 3.95.9 5.75 4.27 1.9 3.7 4.17 7.28 2.26 3.59 5.43 6.39 3.16 2.79 7.44 4.53 4.27 1.74 10.18 1.74 6.64 0 11.6-2.16t8.28-5.64q3.33-3.48 4.96-7.76 1.64-4.27 1.64-8.6 0-5.48-1.16-9.97-1.16-4.48-4.86-7.64-3.69-3.17-10.6-4.96-6.91-1.8-18.51-1.8v-18.56q9.6-.11 15.93-1.8t10.07-4.69q3.75-3.01 5.22-7.23 1.48-4.22 1.48-9.28 0-10.76-6.01-16.36-6.02-5.59-16.04-5.59-4.64 0-8.54 1.32-3.91 1.32-7.02 3.69-3.11 2.38-5.22 5.54-2.11 3.17-3.17 6.97-1.79 4.85-4.69 6.43t-8.18.74m145.49-21.31-5.38 31.75q5.06-1.05 9.7-1.53 4.64-.47 8.97-.47 12.03 0 21.21 3.59 9.17 3.58 15.4 9.91 6.22 6.33 9.39 14.83 3.16 8.49 3.16 18.3 0 12.13-4.27 22.16-4.27 10.02-11.87 17.14t-17.99 11.02q-10.39 3.91-22.63 3.91-7.17 0-13.61-1.48-6.43-1.48-12.08-3.96-5.64-2.47-10.44-5.69t-8.6-6.81l8.02-11.07q2.53-3.59 6.65-3.59 2.63 0 5.38 1.69 2.74 1.68 6.27 3.69 3.54 2 8.34 3.69t11.55 1.69q7.17 0 12.66-2.32t9.13-6.49 5.48-9.92q1.85-5.75 1.85-12.5 0-12.45-7.23-19.46-7.23-7.02-21.36-7.02-10.87 0-22.26 4.01l-16.25-4.64 12.66-74.06h75.33v11.07q0 5.6-3.48 9.08-3.49 3.48-11.82 3.48z"/></svg>